<?xml version="1.0" ?><!DOCTYPE svg  PUBLIC '-//W3C//DTD SVG 1.0//EN'  'http://www.w3.org/TR/2001/REC-SVG-20010904/DTD/svg10.dtd'><svg enable-background="new 0 0 24 24" id="Layer_1" version="1.0" viewBox="0 0 24 24" xml:space="preserve" xmlns="http://www.w3.org/2000/svg" xmlns:xlink="http://www.w3.org/1999/xlink"><path d="M20,20V10c0-1.1-0.9-2-2-2H6c-1.1,0-2,0.9-2,2v10c0,1.1,0.9,2,2,2h12C19.1,22,20,21.1,20,20z M14,15c0,1.1-0.9,2-2,2  s-2-0.9-2-2s0.9-2,2-2S14,13.9,14,15z"/><path d="M17,12c0-0.4,0-4.6,0-5c0-2.8-2.2-5-5-5S7,4.2,7,7  c0,0.4,0,4.6,0,5" fill="none" stroke="#000000" stroke-miterlimit="10" stroke-width="2"/></svg>